# xmcd
#
# Track frame offsets: 
#        150
#        24122
#        44950
#        63435
#        81042
#        102390
#        122650
#        142335
#        162727
#        181892
#        204205
#
# Disc length: 2908 seconds
#
# Revision: 3
# Processed by: cddbd v1.5.1PL2 Copyright (c) Steve Scherf et al.
# Submitted via: ExactAudioCopy v0.95b3
#
DISCID=9c0b5a0b
DTITLE=Des'ree - I Ain't Movin'
DYEAR=1994
DGENRE=Pop
TTITLE0=Herald The Day
TTITLE1=Crazy Maze
TTITLE2=You Gotta Be
TTITLE3=Little Child
TTITLE4=Strong Enough
TTITLE5=Trip On Love
TTITLE6=I Ain't Movin'
TTITLE7=Living In The City
TTITLE8=In My Dreams
TTITLE9=Love Is Here
TTITLE10=I Ain't Movin' (Percussion Reprise)
EXTD=
EXTT0=
EXTT1=
EXTT2=
EXTT3=
EXTT4=
EXTT5=
EXTT6=
EXTT7=
EXTT8=
EXTT9=
EXTT10=
PLAYORDER=
